# xmcd CD database generated by RipIT
#
# Track frame offsets:
# 150
# 47682
# 83142
# 115763
# 146798
# 184648
# 215772
#
# Disc length: 3344 seconds
#
# Revision: 0
# Processed by: cddbd v1.5.2PL0 Copyright (c) Steve Scherf et al.
# Submitted via: RipIT 3.9.0 www.suwald.com/ripit/ripit.html on 2015-11-13 at 08:59
#
DISCID=610d0e07
DTITLE=Atomic - Lucidity
DYEAR=2015
DGENRE=Jazz
TTITLE0=Laterna Interfuit
TTITLE1=A New Junction
TTITLE2=Lucidity
TTITLE3=Start - Stop
TTITLE4=A MacGuffin’s Tale
TTITLE5=Major
TTITLE6=December
EXTD=
EXTT0=
EXTT1=
EXTT2=
EXTT3=
EXTT4=
EXTT5=
EXTT6=
PLAYORDER=
